<svg width="540" height="300" viewBox="0 0 540 300" fill="none" xmlns="http://www.w3.org/2000/svg">
<g clip-path="url(#clip0)">
<rect width="540" height="300" rx="32" fill="#C98C57"/>
<path d="M0 163.278V0H218C190.298 86.7073 199.769 156.144 214.25 197.103C220.219 213.986 213.233 233.015 195.383 231.576C139.118 227.041 47.1698 187.147 0 163.278Z" fill="#006B5C"/>
<path d="M540 133C481.631 98.8069 375.286 116.036 322.227 130.704C316.997 132.15 311.367 132.393 306.479 130.036C262.715 108.934 292.607 35.7257 314.277 0H540V133Z" fill="#111111"/>
<path d="M306.354 201.294C327.91 235.721 335.595 284.639 324.545 308H540V183.931C489.381 151.804 370.778 165.14 314.118 178.164C304.146 180.456 300.924 192.622 306.354 201.294Z" fill="#E6C4C0"/>
</g>
<defs>
<clipPath id="clip0">
<rect width="540" height="300" rx="32" fill="white"/>
</clipPath>
</defs>
</svg>
