<svg width="40" height="40" viewBox="0 0 40 40" fill="none" xmlns="http://www.w3.org/2000/svg">
<path d="M20 3.33337C10.8 3.33337 3.33337 10.8 3.33337 20C3.33337 29.2 10.8 36.6667 20 36.6667C29.2 36.6667 36.6667 29.2 36.6667 20C36.6667 10.8 29.2 3.33337 20 3.33337ZM22.35 30.15V33.3334H17.9V30.1167C15.05 29.5167 12.6334 27.6834 12.45 24.45H15.7167C15.8834 26.2 17.0834 27.5667 20.1334 27.5667C23.4 27.5667 24.1334 25.9334 24.1334 24.9167C24.1334 23.5334 23.4 22.2334 19.6834 21.35C15.55 20.35 12.7167 18.65 12.7167 15.2334C12.7167 12.3667 15.0334 10.5 17.9 9.88337V6.66671H22.35V9.91671C25.45 10.6667 27 13.0167 27.1 15.5667H23.8334C23.75 13.7167 22.7667 12.45 20.1334 12.45C17.6334 12.45 16.1334 13.5834 16.1334 15.1834C16.1334 16.5834 17.2167 17.5 20.5834 18.3667C23.95 19.2334 27.55 20.6834 27.55 24.8834C27.5334 27.9334 25.25 29.6 22.35 30.15Z" fill="#006B5C"/>
</svg>
