<svg width="320" height="56" viewBox="0 0 320 56" fill="none" xmlns="http://www.w3.org/2000/svg">
<rect width="320" height="56" rx="28" fill="#D9D2CF"/>
<path d="M36.364 35.126C35.536 35.126 34.792 34.982 34.132 34.694C33.484 34.394 32.974 33.986 32.602 33.47C32.23 32.942 32.038 32.336 32.026 31.652H33.772C33.832 32.24 34.072 32.738 34.492 33.146C34.924 33.542 35.548 33.74 36.364 33.74C37.144 33.74 37.756 33.548 38.2 33.164C38.656 32.768 38.884 32.264 38.884 31.652C38.884 31.172 38.752 30.782 38.488 30.482C38.224 30.182 37.894 29.954 37.498 29.798C37.102 29.642 36.568 29.474 35.896 29.294C35.068 29.078 34.402 28.862 33.898 28.646C33.406 28.43 32.98 28.094 32.62 27.638C32.272 27.17 32.098 26.546 32.098 25.766C32.098 25.082 32.272 24.476 32.62 23.948C32.968 23.42 33.454 23.012 34.078 22.724C34.714 22.436 35.44 22.292 36.256 22.292C37.432 22.292 38.392 22.586 39.136 23.174C39.892 23.762 40.318 24.542 40.414 25.514H38.614C38.554 25.034 38.302 24.614 37.858 24.254C37.414 23.882 36.826 23.696 36.094 23.696C35.41 23.696 34.852 23.876 34.42 24.236C33.988 24.584 33.772 25.076 33.772 25.712C33.772 26.168 33.898 26.54 34.15 26.828C34.414 27.116 34.732 27.338 35.104 27.494C35.488 27.638 36.022 27.806 36.706 27.998C37.534 28.226 38.2 28.454 38.704 28.682C39.208 28.898 39.64 29.24 40 29.708C40.36 30.164 40.54 30.788 40.54 31.58C40.54 32.192 40.378 32.768 40.054 33.308C39.73 33.848 39.25 34.286 38.614 34.622C37.978 34.958 37.228 35.126 36.364 35.126ZM51.9505 29.69C51.9505 30.002 51.9325 30.332 51.8965 30.68H44.0125C44.0725 31.652 44.4025 32.414 45.0025 32.966C45.6145 33.506 46.3525 33.776 47.2165 33.776C47.9245 33.776 48.5125 33.614 48.9805 33.29C49.4605 32.954 49.7965 32.51 49.9885 31.958H51.7525C51.4885 32.906 50.9605 33.68 50.1685 34.28C49.3765 34.868 48.3925 35.162 47.2165 35.162C46.2805 35.162 45.4405 34.952 44.6965 34.532C43.9645 34.112 43.3885 33.518 42.9685 32.75C42.5485 31.97 42.3385 31.07 42.3385 30.05C42.3385 29.03 42.5425 28.136 42.9505 27.368C43.3585 26.6 43.9285 26.012 44.6605 25.604C45.4045 25.184 46.2565 24.974 47.2165 24.974C48.1525 24.974 48.9805 25.178 49.7005 25.586C50.4205 25.994 50.9725 26.558 51.3565 27.278C51.7525 27.986 51.9505 28.79 51.9505 29.69ZM50.2585 29.348C50.2585 28.724 50.1205 28.19 49.8445 27.746C49.5685 27.29 49.1905 26.948 48.7105 26.72C48.2425 26.48 47.7205 26.36 47.1445 26.36C46.3165 26.36 45.6085 26.624 45.0205 27.152C44.4445 27.68 44.1145 28.412 44.0305 29.348H50.2585ZM55.7506 21.68V35H54.1126V21.68H55.7506ZM67.5423 29.69C67.5423 30.002 67.5243 30.332 67.4883 30.68H59.6043C59.6643 31.652 59.9943 32.414 60.5943 32.966C61.2063 33.506 61.9443 33.776 62.8083 33.776C63.5163 33.776 64.1043 33.614 64.5723 33.29C65.0523 32.954 65.3883 32.51 65.5803 31.958H67.3443C67.0803 32.906 66.5523 33.68 65.7603 34.28C64.9683 34.868 63.9843 35.162 62.8083 35.162C61.8723 35.162 61.0323 34.952 60.2883 34.532C59.5563 34.112 58.9803 33.518 58.5603 32.75C58.1403 31.97 57.9303 31.07 57.9303 30.05C57.9303 29.03 58.1343 28.136 58.5423 27.368C58.9503 26.6 59.5203 26.012 60.2523 25.604C60.9963 25.184 61.8483 24.974 62.8083 24.974C63.7443 24.974 64.5723 25.178 65.2923 25.586C66.0123 25.994 66.5643 26.558 66.9483 27.278C67.3443 27.986 67.5423 28.79 67.5423 29.69ZM65.8503 29.348C65.8503 28.724 65.7123 28.19 65.4363 27.746C65.1603 27.29 64.7823 26.948 64.3023 26.72C63.8343 26.48 63.3123 26.36 62.7363 26.36C61.9083 26.36 61.2003 26.624 60.6123 27.152C60.0363 27.68 59.7063 28.412 59.6223 29.348H65.8503ZM69.0924 30.05C69.0924 29.03 69.2964 28.142 69.7044 27.386C70.1124 26.618 70.6764 26.024 71.3964 25.604C72.1284 25.184 72.9624 24.974 73.8984 24.974C75.1104 24.974 76.1064 25.268 76.8864 25.856C77.6784 26.444 78.2004 27.26 78.4524 28.304H76.6884C76.5204 27.704 76.1904 27.23 75.6984 26.882C75.2184 26.534 74.6184 26.36 73.8984 26.36C72.9624 26.36 72.2064 26.684 71.6304 27.332C71.0544 27.968 70.7664 28.874 70.7664 30.05C70.7664 31.238 71.0544 32.156 71.6304 32.804C72.2064 33.452 72.9624 33.776 73.8984 33.776C74.6184 33.776 75.2184 33.608 75.6984 33.272C76.1784 32.936 76.5084 32.456 76.6884 31.832H78.4524C78.1884 32.84 77.6604 33.65 76.8684 34.262C76.0764 34.862 75.0864 35.162 73.8984 35.162C72.9624 35.162 72.1284 34.952 71.3964 34.532C70.6764 34.112 70.1124 33.518 69.7044 32.75C69.2964 31.982 69.0924 31.082 69.0924 30.05ZM81.484 23.534C81.172 23.534 80.908 23.426 80.692 23.21C80.476 22.994 80.368 22.73 80.368 22.418C80.368 22.106 80.476 21.842 80.692 21.626C80.908 21.41 81.172 21.302 81.484 21.302C81.784 21.302 82.036 21.41 82.24 21.626C82.456 21.842 82.564 22.106 82.564 22.418C82.564 22.73 82.456 22.994 82.24 23.21C82.036 23.426 81.784 23.534 81.484 23.534ZM82.276 25.136V35H80.638V25.136H82.276ZM89.3696 35.162C88.4456 35.162 87.6056 34.952 86.8496 34.532C86.1056 34.112 85.5176 33.518 85.0856 32.75C84.6656 31.97 84.4556 31.07 84.4556 30.05C84.4556 29.042 84.6716 28.154 85.1036 27.386C85.5476 26.606 86.1476 26.012 86.9036 25.604C87.6596 25.184 88.5056 24.974 89.4416 24.974C90.3776 24.974 91.2236 25.184 91.9796 25.604C92.7356 26.012 93.3296 26.6 93.7616 27.368C94.2056 28.136 94.4276 29.03 94.4276 30.05C94.4276 31.07 94.1996 31.97 93.7436 32.75C93.2996 33.518 92.6936 34.112 91.9256 34.532C91.1576 34.952 90.3056 35.162 89.3696 35.162ZM89.3696 33.722C89.9576 33.722 90.5096 33.584 91.0256 33.308C91.5416 33.032 91.9556 32.618 92.2676 32.066C92.5916 31.514 92.7536 30.842 92.7536 30.05C92.7536 29.258 92.5976 28.586 92.2856 28.034C91.9736 27.482 91.5656 27.074 91.0616 26.81C90.5576 26.534 90.0116 26.396 89.4236 26.396C88.8236 26.396 88.2716 26.534 87.7676 26.81C87.2756 27.074 86.8796 27.482 86.5796 28.034C86.2796 28.586 86.1296 29.258 86.1296 30.05C86.1296 30.854 86.2736 31.532 86.5616 32.084C86.8616 32.636 87.2576 33.05 87.7496 33.326C88.2416 33.59 88.7816 33.722 89.3696 33.722ZM101.387 24.956C102.587 24.956 103.559 25.322 104.303 26.054C105.047 26.774 105.419 27.818 105.419 29.186V35H103.799V29.42C103.799 28.436 103.553 27.686 103.061 27.17C102.569 26.642 101.897 26.378 101.045 26.378C100.181 26.378 99.4913 26.648 98.9753 27.188C98.4713 27.728 98.2193 28.514 98.2193 29.546V35H96.5813V25.136H98.2193V26.54C98.5433 26.036 98.9813 25.646 99.5333 25.37C100.097 25.094 100.715 24.956 101.387 24.956ZM107.483 30.032C107.483 29.024 107.687 28.142 108.095 27.386C108.503 26.618 109.061 26.024 109.769 25.604C110.489 25.184 111.287 24.974 112.163 24.974C113.027 24.974 113.777 25.16 114.413 25.532C115.049 25.904 115.523 26.372 115.835 26.936V25.136H117.491V35H115.835V33.164C115.511 33.74 115.025 34.22 114.377 34.604C113.741 34.976 112.997 35.162 112.145 35.162C111.269 35.162 110.477 34.946 109.769 34.514C109.061 34.082 108.503 33.476 108.095 32.696C107.687 31.916 107.483 31.028 107.483 30.032ZM115.835 30.05C115.835 29.306 115.685 28.658 115.385 28.106C115.085 27.554 114.677 27.134 114.161 26.846C113.657 26.546 113.099 26.396 112.487 26.396C111.875 26.396 111.317 26.54 110.813 26.828C110.309 27.116 109.907 27.536 109.607 28.088C109.307 28.64 109.157 29.288 109.157 30.032C109.157 30.788 109.307 31.448 109.607 32.012C109.907 32.564 110.309 32.99 110.813 33.29C111.317 33.578 111.875 33.722 112.487 33.722C113.099 33.722 113.657 33.578 114.161 33.29C114.677 32.99 115.085 32.564 115.385 32.012C115.685 31.448 115.835 30.794 115.835 30.05ZM121.897 26.738C122.185 26.174 122.593 25.736 123.121 25.424C123.661 25.112 124.315 24.956 125.083 24.956V26.648H124.651C122.815 26.648 121.897 27.644 121.897 29.636V35H120.259V25.136H121.897V26.738ZM131.161 30.05C131.161 29.03 131.365 28.142 131.773 27.386C132.181 26.618 132.745 26.024 133.465 25.604C134.197 25.184 135.031 24.974 135.967 24.974C137.179 24.974 138.175 25.268 138.955 25.856C139.747 26.444 140.269 27.26 140.521 28.304H138.757C138.589 27.704 138.259 27.23 137.767 26.882C137.287 26.534 136.687 26.36 135.967 26.36C135.031 26.36 134.275 26.684 133.699 27.332C133.123 27.968 132.835 28.874 132.835 30.05C132.835 31.238 133.123 32.156 133.699 32.804C134.275 33.452 135.031 33.776 135.967 33.776C136.687 33.776 137.287 33.608 137.767 33.272C138.247 32.936 138.577 32.456 138.757 31.832H140.521C140.257 32.84 139.729 33.65 138.937 34.262C138.145 34.862 137.155 35.162 135.967 35.162C135.031 35.162 134.197 34.952 133.465 34.532C132.745 34.112 132.181 33.518 131.773 32.75C131.365 31.982 131.161 31.082 131.161 30.05ZM142.094 30.032C142.094 29.024 142.298 28.142 142.706 27.386C143.114 26.618 143.672 26.024 144.38 25.604C145.1 25.184 145.898 24.974 146.774 24.974C147.638 24.974 148.388 25.16 149.024 25.532C149.66 25.904 150.134 26.372 150.446 26.936V25.136H152.102V35H150.446V33.164C150.122 33.74 149.636 34.22 148.988 34.604C148.352 34.976 147.608 35.162 146.756 35.162C145.88 35.162 145.088 34.946 144.38 34.514C143.672 34.082 143.114 33.476 142.706 32.696C142.298 31.916 142.094 31.028 142.094 30.032ZM150.446 30.05C150.446 29.306 150.296 28.658 149.996 28.106C149.696 27.554 149.288 27.134 148.772 26.846C148.268 26.546 147.71 26.396 147.098 26.396C146.486 26.396 145.928 26.54 145.424 26.828C144.92 27.116 144.518 27.536 144.218 28.088C143.918 28.64 143.768 29.288 143.768 30.032C143.768 30.788 143.918 31.448 144.218 32.012C144.518 32.564 144.92 32.99 145.424 33.29C145.928 33.578 146.486 33.722 147.098 33.722C147.71 33.722 148.268 33.578 148.772 33.29C149.288 32.99 149.696 32.564 149.996 32.012C150.296 31.448 150.446 30.794 150.446 30.05ZM156.868 26.486V32.3C156.868 32.78 156.97 33.122 157.174 33.326C157.378 33.518 157.732 33.614 158.236 33.614H159.442V35H157.966C157.054 35 156.37 34.79 155.914 34.37C155.458 33.95 155.23 33.26 155.23 32.3V26.486H153.952V25.136H155.23V22.652H156.868V25.136H159.442V26.486H156.868ZM170.427 29.69C170.427 30.002 170.409 30.332 170.373 30.68H162.489C162.549 31.652 162.879 32.414 163.479 32.966C164.091 33.506 164.829 33.776 165.693 33.776C166.401 33.776 166.989 33.614 167.457 33.29C167.937 32.954 168.273 32.51 168.465 31.958H170.229C169.965 32.906 169.437 33.68 168.645 34.28C167.853 34.868 166.869 35.162 165.693 35.162C164.757 35.162 163.917 34.952 163.173 34.532C162.441 34.112 161.865 33.518 161.445 32.75C161.025 31.97 160.815 31.07 160.815 30.05C160.815 29.03 161.019 28.136 161.427 27.368C161.835 26.6 162.405 26.012 163.137 25.604C163.881 25.184 164.733 24.974 165.693 24.974C166.629 24.974 167.457 25.178 168.177 25.586C168.897 25.994 169.449 26.558 169.833 27.278C170.229 27.986 170.427 28.79 170.427 29.69ZM168.735 29.348C168.735 28.724 168.597 28.19 168.321 27.746C168.045 27.29 167.667 26.948 167.187 26.72C166.719 26.48 166.197 26.36 165.621 26.36C164.793 26.36 164.085 26.624 163.497 27.152C162.921 27.68 162.591 28.412 162.507 29.348H168.735ZM176.657 24.974C177.509 24.974 178.253 25.16 178.889 25.532C179.537 25.904 180.017 26.372 180.329 26.936V25.136H181.985V35.216C181.985 36.116 181.793 36.914 181.409 37.61C181.025 38.318 180.473 38.87 179.753 39.266C179.045 39.662 178.217 39.86 177.269 39.86C175.973 39.86 174.893 39.554 174.029 38.942C173.165 38.33 172.655 37.496 172.499 36.44H174.119C174.299 37.04 174.671 37.52 175.235 37.88C175.799 38.252 176.477 38.438 177.269 38.438C178.169 38.438 178.901 38.156 179.465 37.592C180.041 37.028 180.329 36.236 180.329 35.216V33.146C180.005 33.722 179.525 34.202 178.889 34.586C178.253 34.97 177.509 35.162 176.657 35.162C175.781 35.162 174.983 34.946 174.263 34.514C173.555 34.082 172.997 33.476 172.589 32.696C172.181 31.916 171.977 31.028 171.977 30.032C171.977 29.024 172.181 28.142 172.589 27.386C172.997 26.618 173.555 26.024 174.263 25.604C174.983 25.184 175.781 24.974 176.657 24.974ZM180.329 30.05C180.329 29.306 180.179 28.658 179.879 28.106C179.579 27.554 179.171 27.134 178.655 26.846C178.151 26.546 177.593 26.396 176.981 26.396C176.369 26.396 175.811 26.54 175.307 26.828C174.803 27.116 174.401 27.536 174.101 28.088C173.801 28.64 173.651 29.288 173.651 30.032C173.651 30.788 173.801 31.448 174.101 32.012C174.401 32.564 174.803 32.99 175.307 33.29C175.811 33.578 176.369 33.722 176.981 33.722C177.593 33.722 178.151 33.578 178.655 33.29C179.171 32.99 179.579 32.564 179.879 32.012C180.179 31.448 180.329 30.794 180.329 30.05ZM189.055 35.162C188.131 35.162 187.291 34.952 186.535 34.532C185.791 34.112 185.203 33.518 184.771 32.75C184.351 31.97 184.141 31.07 184.141 30.05C184.141 29.042 184.357 28.154 184.789 27.386C185.233 26.606 185.833 26.012 186.589 25.604C187.345 25.184 188.191 24.974 189.127 24.974C190.063 24.974 190.909 25.184 191.665 25.604C192.421 26.012 193.015 26.6 193.447 27.368C193.891 28.136 194.113 29.03 194.113 30.05C194.113 31.07 193.885 31.97 193.429 32.75C192.985 33.518 192.379 34.112 191.611 34.532C190.843 34.952 189.991 35.162 189.055 35.162ZM189.055 33.722C189.643 33.722 190.195 33.584 190.711 33.308C191.227 33.032 191.641 32.618 191.953 32.066C192.277 31.514 192.439 30.842 192.439 30.05C192.439 29.258 192.283 28.586 191.971 28.034C191.659 27.482 191.251 27.074 190.747 26.81C190.243 26.534 189.697 26.396 189.109 26.396C188.509 26.396 187.957 26.534 187.453 26.81C186.961 27.074 186.565 27.482 186.265 28.034C185.965 28.586 185.815 29.258 185.815 30.05C185.815 30.854 185.959 31.532 186.247 32.084C186.547 32.636 186.943 33.05 187.435 33.326C187.927 33.59 188.467 33.722 189.055 33.722ZM197.905 26.738C198.193 26.174 198.601 25.736 199.129 25.424C199.669 25.112 200.323 24.956 201.091 24.956V26.648H200.659C198.823 26.648 197.905 27.644 197.905 29.636V35H196.267V25.136H197.905V26.738ZM203.828 23.534C203.516 23.534 203.252 23.426 203.036 23.21C202.82 22.994 202.712 22.73 202.712 22.418C202.712 22.106 202.82 21.842 203.036 21.626C203.252 21.41 203.516 21.302 203.828 21.302C204.128 21.302 204.38 21.41 204.584 21.626C204.8 21.842 204.908 22.106 204.908 22.418C204.908 22.73 204.8 22.994 204.584 23.21C204.38 23.426 204.128 23.534 203.828 23.534ZM204.62 25.136V35H202.982V25.136H204.62ZM206.799 30.032C206.799 29.024 207.003 28.142 207.411 27.386C207.819 26.618 208.377 26.024 209.085 25.604C209.805 25.184 210.603 24.974 211.479 24.974C212.343 24.974 213.093 25.16 213.729 25.532C214.365 25.904 214.839 26.372 215.151 26.936V25.136H216.807V35H215.151V33.164C214.827 33.74 214.341 34.22 213.693 34.604C213.057 34.976 212.313 35.162 211.461 35.162C210.585 35.162 209.793 34.946 209.085 34.514C208.377 34.082 207.819 33.476 207.411 32.696C207.003 31.916 206.799 31.028 206.799 30.032ZM215.151 30.05C215.151 29.306 215.001 28.658 214.701 28.106C214.401 27.554 213.993 27.134 213.477 26.846C212.973 26.546 212.415 26.396 211.803 26.396C211.191 26.396 210.633 26.54 210.129 26.828C209.625 27.116 209.223 27.536 208.923 28.088C208.623 28.64 208.473 29.288 208.473 30.032C208.473 30.788 208.623 31.448 208.923 32.012C209.223 32.564 209.625 32.99 210.129 33.29C210.633 33.578 211.191 33.722 211.803 33.722C212.415 33.722 212.973 33.578 213.477 33.29C213.993 32.99 214.401 32.564 214.701 32.012C215.001 31.448 215.151 30.794 215.151 30.05Z" fill="#757270"/>
<path d="M284.333 25.3334L291 32L297.667 25.3334H284.333Z" fill="#111111"/>
</svg>
