<svg width="320" height="56" viewBox="0 0 320 56" fill="none" xmlns="http://www.w3.org/2000/svg">
<rect width="320" height="56" rx="28" fill="#D9D2CF"/>
<rect x="272" y="8" width="40" height="40" rx="20" fill="#006B5C"/>
<path d="M281.667 19.48C284.36 22.9334 289.333 29.3334 289.333 29.3334V37.3334C289.333 38.0667 289.933 38.6667 290.667 38.6667H293.333C294.067 38.6667 294.667 38.0667 294.667 37.3334V29.3334C294.667 29.3334 299.627 22.9334 302.32 19.48C303 18.6 302.373 17.3334 301.267 17.3334H282.72C281.613 17.3334 280.987 18.6 281.667 19.48Z" fill="#111111"/>
<path d="M39.668 28.538C40.124 28.61 40.538 28.796 40.91 29.096C41.294 29.396 41.594 29.768 41.81 30.212C42.038 30.656 42.152 31.13 42.152 31.634C42.152 32.27 41.99 32.846 41.666 33.362C41.342 33.866 40.868 34.268 40.244 34.568C39.632 34.856 38.906 35 38.066 35H33.386V22.454H37.886C38.738 22.454 39.464 22.598 40.064 22.886C40.664 23.162 41.114 23.54 41.414 24.02C41.714 24.5 41.864 25.04 41.864 25.64C41.864 26.384 41.66 27.002 41.252 27.494C40.856 27.974 40.328 28.322 39.668 28.538ZM35.024 27.872H37.778C38.546 27.872 39.14 27.692 39.56 27.332C39.98 26.972 40.19 26.474 40.19 25.838C40.19 25.202 39.98 24.704 39.56 24.344C39.14 23.984 38.534 23.804 37.742 23.804H35.024V27.872ZM37.922 33.65C38.738 33.65 39.374 33.458 39.83 33.074C40.286 32.69 40.514 32.156 40.514 31.472C40.514 30.776 40.274 30.23 39.794 29.834C39.314 29.426 38.672 29.222 37.868 29.222H35.024V33.65H37.922ZM53.1731 25.136V35H51.5351V33.542C51.2231 34.046 50.7851 34.442 50.2211 34.73C49.6691 35.006 49.0571 35.144 48.3851 35.144C47.6171 35.144 46.9271 34.988 46.3151 34.676C45.7031 34.352 45.2171 33.872 44.8571 33.236C44.5091 32.6 44.3351 31.826 44.3351 30.914V25.136H45.9551V30.698C45.9551 31.67 46.2011 32.42 46.6931 32.948C47.1851 33.464 47.8571 33.722 48.7091 33.722C49.5851 33.722 50.2751 33.452 50.7791 32.912C51.2831 32.372 51.5351 31.586 51.5351 30.554V25.136H53.1731ZM59.4307 35.162C58.6747 35.162 57.9967 35.036 57.3967 34.784C56.7967 34.52 56.3227 34.16 55.9747 33.704C55.6267 33.236 55.4347 32.702 55.3987 32.102H57.0907C57.1387 32.594 57.3667 32.996 57.7747 33.308C58.1947 33.62 58.7407 33.776 59.4127 33.776C60.0367 33.776 60.5287 33.638 60.8887 33.362C61.2487 33.086 61.4287 32.738 61.4287 32.318C61.4287 31.886 61.2367 31.568 60.8527 31.364C60.4687 31.148 59.8747 30.938 59.0707 30.734C58.3387 30.542 57.7387 30.35 57.2707 30.158C56.8147 29.954 56.4187 29.66 56.0827 29.276C55.7587 28.88 55.5967 28.364 55.5967 27.728C55.5967 27.224 55.7467 26.762 56.0467 26.342C56.3467 25.922 56.7727 25.592 57.3247 25.352C57.8767 25.1 58.5067 24.974 59.2147 24.974C60.3067 24.974 61.1887 25.25 61.8607 25.802C62.5327 26.354 62.8927 27.11 62.9407 28.07H61.3027C61.2667 27.554 61.0567 27.14 60.6727 26.828C60.3007 26.516 59.7967 26.36 59.1607 26.36C58.5727 26.36 58.1047 26.486 57.7567 26.738C57.4087 26.99 57.2347 27.32 57.2347 27.728C57.2347 28.052 57.3367 28.322 57.5407 28.538C57.7567 28.742 58.0207 28.91 58.3327 29.042C58.6567 29.162 59.1007 29.3 59.6647 29.456C60.3727 29.648 60.9487 29.84 61.3927 30.032C61.8367 30.212 62.2147 30.488 62.5267 30.86C62.8507 31.232 63.0187 31.718 63.0307 32.318C63.0307 32.858 62.8807 33.344 62.5807 33.776C62.2807 34.208 61.8547 34.55 61.3027 34.802C60.7627 35.042 60.1387 35.162 59.4307 35.162ZM64.731 30.05C64.731 29.03 64.935 28.142 65.343 27.386C65.751 26.618 66.315 26.024 67.035 25.604C67.767 25.184 68.601 24.974 69.537 24.974C70.749 24.974 71.745 25.268 72.525 25.856C73.317 26.444 73.839 27.26 74.091 28.304H72.327C72.159 27.704 71.829 27.23 71.337 26.882C70.857 26.534 70.257 26.36 69.537 26.36C68.601 26.36 67.845 26.684 67.269 27.332C66.693 27.968 66.405 28.874 66.405 30.05C66.405 31.238 66.693 32.156 67.269 32.804C67.845 33.452 68.601 33.776 69.537 33.776C70.257 33.776 70.857 33.608 71.337 33.272C71.817 32.936 72.147 32.456 72.327 31.832H74.091C73.827 32.84 73.299 33.65 72.507 34.262C71.715 34.862 70.725 35.162 69.537 35.162C68.601 35.162 67.767 34.952 67.035 34.532C66.315 34.112 65.751 33.518 65.343 32.75C64.935 31.982 64.731 31.082 64.731 30.05ZM75.6646 30.032C75.6646 29.024 75.8686 28.142 76.2766 27.386C76.6846 26.618 77.2426 26.024 77.9506 25.604C78.6706 25.184 79.4686 24.974 80.3446 24.974C81.2086 24.974 81.9586 25.16 82.5946 25.532C83.2306 25.904 83.7046 26.372 84.0166 26.936V25.136H85.6726V35H84.0166V33.164C83.6926 33.74 83.2066 34.22 82.5586 34.604C81.9226 34.976 81.1786 35.162 80.3266 35.162C79.4506 35.162 78.6586 34.946 77.9506 34.514C77.2426 34.082 76.6846 33.476 76.2766 32.696C75.8686 31.916 75.6646 31.028 75.6646 30.032ZM84.0166 30.05C84.0166 29.306 83.8666 28.658 83.5666 28.106C83.2666 27.554 82.8586 27.134 82.3426 26.846C81.8386 26.546 81.2806 26.396 80.6686 26.396C80.0566 26.396 79.4986 26.54 78.9946 26.828C78.4906 27.116 78.0886 27.536 77.7886 28.088C77.4886 28.64 77.3386 29.288 77.3386 30.032C77.3386 30.788 77.4886 31.448 77.7886 32.012C78.0886 32.564 78.4906 32.99 78.9946 33.29C79.4986 33.578 80.0566 33.722 80.6686 33.722C81.2806 33.722 81.8386 33.578 82.3426 33.29C82.8586 32.99 83.2666 32.564 83.5666 32.012C83.8666 31.448 84.0166 30.794 84.0166 30.05ZM90.0787 26.738C90.3667 26.174 90.7747 25.736 91.3027 25.424C91.8427 25.112 92.4967 24.956 93.2647 24.956V26.648H92.8327C90.9967 26.648 90.0787 27.644 90.0787 29.636V35H88.4407V25.136H90.0787V26.738ZM104.85 24.956C105.594 24.956 106.266 25.118 106.866 25.442C107.466 25.754 107.934 26.228 108.27 26.864C108.618 27.5 108.792 28.274 108.792 29.186V35H107.172V29.42C107.172 28.436 106.926 27.686 106.434 27.17C105.942 26.642 105.27 26.378 104.418 26.378C103.554 26.378 102.864 26.648 102.348 27.188C101.844 27.728 101.592 28.514 101.592 29.546V35H99.9544V21.68H101.592V26.54C101.916 26.036 102.36 25.646 102.924 25.37C103.5 25.094 104.142 24.956 104.85 24.956ZM115.77 35.162C114.846 35.162 114.006 34.952 113.25 34.532C112.506 34.112 111.918 33.518 111.486 32.75C111.066 31.97 110.856 31.07 110.856 30.05C110.856 29.042 111.072 28.154 111.504 27.386C111.948 26.606 112.548 26.012 113.304 25.604C114.06 25.184 114.906 24.974 115.842 24.974C116.778 24.974 117.624 25.184 118.38 25.604C119.136 26.012 119.73 26.6 120.162 27.368C120.606 28.136 120.828 29.03 120.828 30.05C120.828 31.07 120.6 31.97 120.144 32.75C119.7 33.518 119.094 34.112 118.326 34.532C117.558 34.952 116.706 35.162 115.77 35.162ZM115.77 33.722C116.358 33.722 116.91 33.584 117.426 33.308C117.942 33.032 118.356 32.618 118.668 32.066C118.992 31.514 119.154 30.842 119.154 30.05C119.154 29.258 118.998 28.586 118.686 28.034C118.374 27.482 117.966 27.074 117.462 26.81C116.958 26.534 116.412 26.396 115.824 26.396C115.224 26.396 114.672 26.534 114.168 26.81C113.676 27.074 113.28 27.482 112.98 28.034C112.68 28.586 112.53 29.258 112.53 30.05C112.53 30.854 112.674 31.532 112.962 32.084C113.262 32.636 113.658 33.05 114.15 33.326C114.642 33.59 115.182 33.722 115.77 33.722ZM124.62 26.738C124.908 26.174 125.316 25.736 125.844 25.424C126.384 25.112 127.038 24.956 127.806 24.956V26.648H127.374C125.538 26.648 124.62 27.644 124.62 29.636V35H122.982V25.136H124.62V26.738ZM131.695 26.486V32.3C131.695 32.78 131.797 33.122 132.001 33.326C132.205 33.518 132.559 33.614 133.063 33.614H134.269V35H132.793C131.881 35 131.197 34.79 130.741 34.37C130.285 33.95 130.057 33.26 130.057 32.3V26.486H128.779V25.136H130.057V22.652H131.695V25.136H134.269V26.486H131.695ZM135.641 30.032C135.641 29.024 135.845 28.142 136.253 27.386C136.661 26.618 137.219 26.024 137.927 25.604C138.647 25.184 139.445 24.974 140.321 24.974C141.185 24.974 141.935 25.16 142.571 25.532C143.207 25.904 143.681 26.372 143.993 26.936V25.136H145.649V35H143.993V33.164C143.669 33.74 143.183 34.22 142.535 34.604C141.899 34.976 141.155 35.162 140.303 35.162C139.427 35.162 138.635 34.946 137.927 34.514C137.219 34.082 136.661 33.476 136.253 32.696C135.845 31.916 135.641 31.028 135.641 30.032ZM143.993 30.05C143.993 29.306 143.843 28.658 143.543 28.106C143.243 27.554 142.835 27.134 142.319 26.846C141.815 26.546 141.257 26.396 140.645 26.396C140.033 26.396 139.475 26.54 138.971 26.828C138.467 27.116 138.065 27.536 137.765 28.088C137.465 28.64 137.315 29.288 137.315 30.032C137.315 30.788 137.465 31.448 137.765 32.012C138.065 32.564 138.467 32.99 138.971 33.29C139.475 33.578 140.033 33.722 140.645 33.722C141.257 33.722 141.815 33.578 142.319 33.29C142.835 32.99 143.243 32.564 143.543 32.012C143.843 31.448 143.993 30.794 143.993 30.05ZM150.055 21.68V35H148.417V21.68H150.055ZM153.693 23.534C153.381 23.534 153.117 23.426 152.901 23.21C152.685 22.994 152.577 22.73 152.577 22.418C152.577 22.106 152.685 21.842 152.901 21.626C153.117 21.41 153.381 21.302 153.693 21.302C153.993 21.302 154.245 21.41 154.449 21.626C154.665 21.842 154.773 22.106 154.773 22.418C154.773 22.73 154.665 22.994 154.449 23.21C154.245 23.426 153.993 23.534 153.693 23.534ZM154.485 25.136V35H152.847V25.136H154.485ZM161.471 33.776C162.191 33.776 162.791 33.608 163.271 33.272C163.751 32.936 164.081 32.456 164.261 31.832H166.025C165.785 32.768 165.311 33.536 164.603 34.136C163.907 34.724 163.031 35.06 161.975 35.144V36.044C162.683 36.032 163.247 36.182 163.667 36.494C164.087 36.806 164.297 37.25 164.297 37.826C164.297 38.39 164.093 38.84 163.685 39.176C163.277 39.512 162.749 39.68 162.101 39.68H160.031V38.618H161.777C162.173 38.618 162.461 38.558 162.641 38.438C162.833 38.318 162.929 38.114 162.929 37.826C162.929 37.55 162.833 37.352 162.641 37.232C162.461 37.112 162.173 37.052 161.777 37.052H160.877V35.126C160.049 35.042 159.317 34.784 158.681 34.352C158.045 33.908 157.547 33.32 157.187 32.588C156.839 31.844 156.665 30.998 156.665 30.05C156.665 29.03 156.869 28.142 157.277 27.386C157.685 26.618 158.249 26.024 158.969 25.604C159.701 25.184 160.535 24.974 161.471 24.974C162.683 24.974 163.679 25.268 164.459 25.856C165.251 26.444 165.773 27.26 166.025 28.304H164.261C164.093 27.704 163.763 27.23 163.271 26.882C162.791 26.534 162.191 26.36 161.471 26.36C160.535 26.36 159.779 26.684 159.203 27.332C158.627 27.968 158.339 28.874 158.339 30.05C158.339 31.238 158.627 32.156 159.203 32.804C159.779 33.452 160.535 33.776 161.471 33.776ZM167.598 30.032C167.598 29.024 167.802 28.142 168.21 27.386C168.618 26.618 169.176 26.024 169.884 25.604C170.604 25.184 171.402 24.974 172.278 24.974C173.142 24.974 173.892 25.16 174.528 25.532C175.164 25.904 175.638 26.372 175.95 26.936V25.136H177.606V35H175.95V33.164C175.626 33.74 175.14 34.22 174.492 34.604C173.856 34.976 173.112 35.162 172.26 35.162C171.384 35.162 170.592 34.946 169.884 34.514C169.176 34.082 168.618 33.476 168.21 32.696C167.802 31.916 167.598 31.028 167.598 30.032ZM175.95 30.05C175.95 29.306 175.8 28.658 175.5 28.106C175.2 27.554 174.792 27.134 174.276 26.846C173.772 26.546 173.214 26.396 172.602 26.396C171.99 26.396 171.432 26.54 170.928 26.828C170.424 27.116 170.022 27.536 169.722 28.088C169.422 28.64 169.272 29.288 169.272 30.032C169.272 30.788 169.422 31.448 169.722 32.012C170.022 32.564 170.424 32.99 170.928 33.29C171.432 33.578 171.99 33.722 172.602 33.722C173.214 33.722 173.772 33.578 174.276 33.29C174.792 32.99 175.2 32.564 175.5 32.012C175.8 31.448 175.95 30.794 175.95 30.05Z" fill="#757270"/>
</svg>
